# xmcd
#
# Track frame offsets:
#	150
#	15366
#	31928
#	50990
#	70519
#	92549
#	110286
#	126433
#	145746
#	162520
#	183407
#	200236
#
# Disc length: 2921 seconds
#
# Revision: 1
# Processed by: cddbd v1.5.1PL0 Copyright (c) Steve Scherf et al.
# Submitted via: CDex 1.50Beta5
#
DISCID=a50b670c
DTITLE=TATA - AMAZING
DYEAR=1900
DGENRE=
TTITLE0=タイ語で読めねえ
TTITLE1=タイ語で読めねえ
TTITLE2=タイ語で読めねえ
TTITLE3=タイ語で読めねえ
TTITLE4=タイ語で読めねえ
TTITLE5=タイ語で読めねえ
TTITLE6=タイ語で読めねえ
TTITLE7=タイ語で読めねえ
TTITLE8=タイ語で読めねえ
TTITLE9=タイ語で読めねえ
TTITLE10=タイ語で読めねえ
TTITLE11=タイ語で読めねえ
EXTD=
EXTT0=
EXTT1=
EXTT2=
EXTT3=
EXTT4=
EXTT5=
EXTT6=
EXTT7=
EXTT8=
EXTT9=
EXTT10=
EXTT11=
PLAYORDER=
